<svg id="svg" version="1.1" xmlns="http://www.w3.org/2000/svg" xmlns:xlink="http://www.w3.org/1999/xlink" width="400" height="400" viewBox="0, 0, 400,400"><g id="svgg"><path id="path0" d="M188.400 62.851 C 183.334 63.126,178.874 63.652,175.600 64.360 C 174.610 64.574,173.350 64.832,172.800 64.934 C 171.024 65.262,165.024 66.836,164.200 67.190 C 163.760 67.379,161.960 68.026,160.200 68.628 C 151.820 71.491,137.324 79.431,133.600 83.198 C 133.490 83.309,132.590 84.055,131.600 84.855 C 130.610 85.656,129.350 86.710,128.800 87.197 C 128.250 87.685,126.922 88.830,125.848 89.742 C 121.007 93.854,111.282 105.706,108.230 111.211 C 107.807 111.975,107.357 112.690,107.230 112.800 C 106.751 113.216,103.698 119.780,102.207 123.600 C 101.820 124.590,101.361 125.760,101.186 126.200 C 101.010 126.640,100.757 127.450,100.623 128.000 C 100.490 128.550,100.099 129.990,99.756 131.200 C 99.012 133.823,98.151 138.204,97.516 142.600 C 97.002 146.163,96.869 164.388,97.338 167.200 C 98.102 171.791,98.907 175.871,99.193 176.600 C 99.366 177.040,99.826 178.480,100.216 179.800 C 100.606 181.120,101.257 182.963,101.662 183.896 C 102.068 184.828,102.400 185.693,102.400 185.818 C 102.400 186.538,108.522 199.029,110.821 203.000 C 111.712 204.540,112.544 206.115,112.668 206.500 C 112.792 206.885,113.011 207.200,113.156 207.200 C 113.300 207.200,113.769 207.875,114.199 208.700 C 114.628 209.525,115.389 210.757,115.889 211.438 C 116.390 212.119,116.800 212.793,116.800 212.937 C 116.800 213.081,117.394 214.054,118.121 215.099 C 118.848 216.145,119.789 217.675,120.212 218.500 C 120.635 219.325,121.100 220.000,121.244 220.000 C 121.389 220.000,121.612 220.315,121.742 220.700 C 121.975 221.396,122.810 222.818,123.209 223.200 C 123.324 223.310,124.222 224.660,125.206 226.200 C 126.190 227.740,127.139 229.180,127.316 229.400 C 127.492 229.620,129.243 232.230,131.206 235.200 C 133.170 238.170,134.964 240.870,135.193 241.200 C 136.074 242.468,146.221 257.681,146.600 258.302 C 146.820 258.662,147.139 259.146,147.310 259.378 C 148.821 261.437,150.800 264.503,150.800 264.784 C 150.800 264.976,150.948 265.193,151.129 265.267 C 151.565 265.443,158.800 277.068,158.800 277.593 C 158.800 277.817,158.980 278.000,159.200 278.000 C 159.420 278.000,159.600 278.184,159.600 278.408 C 159.600 278.632,160.022 279.487,160.537 280.308 C 161.504 281.848,163.025 284.543,165.669 289.400 C 168.016 293.710,175.298 308.644,176.398 311.400 C 176.574 311.840,177.186 313.240,177.759 314.511 C 178.331 315.782,178.800 317.051,178.800 317.331 C 178.800 317.611,178.950 318.011,179.134 318.220 C 179.318 318.429,179.785 319.500,180.172 320.600 C 180.559 321.700,181.101 323.140,181.378 323.800 C 181.654 324.460,182.105 325.630,182.380 326.400 C 182.656 327.170,183.030 328.160,183.214 328.600 C 183.858 330.150,186.800 339.712,186.800 340.258 C 186.800 340.562,186.960 341.123,187.157 341.505 C 187.658 342.483,188.800 346.536,188.800 347.341 C 188.800 347.709,188.960 348.323,189.157 348.705 C 189.707 349.779,190.800 353.772,190.800 354.712 C 190.800 355.174,190.980 355.664,191.200 355.800 C 191.420 355.936,191.600 356.542,191.600 357.147 C 191.600 358.535,192.250 359.339,193.892 359.984 C 197.193 361.279,199.236 358.552,201.822 349.400 C 202.195 348.080,202.637 346.640,202.806 346.200 C 202.974 345.760,203.421 344.230,203.800 342.800 C 204.179 341.370,204.629 339.840,204.800 339.400 C 204.971 338.960,205.421 337.430,205.800 336.000 C 206.179 334.570,206.636 333.040,206.816 332.600 C 206.996 332.160,207.439 330.810,207.800 329.600 C 208.161 328.390,208.603 327.040,208.781 326.600 C 209.099 325.814,210.202 322.974,210.800 321.400 C 211.726 318.965,212.598 316.797,213.294 315.200 C 213.725 314.210,214.348 312.770,214.679 312.000 C 216.173 308.519,217.435 305.823,219.920 300.800 C 221.390 297.830,222.684 295.310,222.796 295.200 C 222.908 295.090,223.464 294.100,224.032 293.000 C 225.842 289.490,228.051 285.498,230.117 282.000 C 232.710 277.610,246.488 255.462,246.788 255.200 C 246.914 255.090,247.820 253.740,248.800 252.200 C 249.780 250.660,250.680 249.310,250.800 249.200 C 250.920 249.090,251.820 247.740,252.800 246.200 C 253.780 244.660,254.681 243.310,254.802 243.200 C 254.923 243.090,256.674 240.480,258.693 237.400 C 260.713 234.320,262.512 231.620,262.693 231.400 C 262.873 231.180,263.808 229.740,264.771 228.200 C 265.734 226.660,266.631 225.310,266.764 225.200 C 266.898 225.090,267.362 224.325,267.795 223.500 C 268.228 222.675,268.721 222.000,268.891 222.000 C 269.061 222.000,269.200 221.824,269.200 221.610 C 269.200 221.395,270.820 218.611,272.800 215.422 C 274.780 212.233,276.400 209.511,276.400 209.374 C 276.400 209.236,276.735 208.646,277.143 208.062 C 277.946 206.916,279.920 203.410,281.571 200.200 C 282.137 199.100,282.704 198.110,282.831 198.000 C 283.468 197.450,289.846 183.780,290.245 182.111 C 290.391 181.500,290.644 180.820,290.807 180.600 C 290.970 180.380,291.410 178.760,291.786 177.000 C 292.161 175.240,292.624 173.170,292.813 172.400 C 294.539 165.374,294.535 144.524,292.807 137.600 C 292.615 136.830,292.156 134.940,291.787 133.400 C 290.933 129.829,289.392 125.192,288.161 122.489 C 287.632 121.328,287.200 120.210,287.200 120.004 C 287.200 119.516,283.657 112.686,282.274 110.508 C 281.683 109.577,281.200 108.647,281.200 108.441 C 281.200 108.235,281.065 108.007,280.900 107.933 C 280.735 107.860,280.096 107.025,279.480 106.078 C 277.905 103.658,272.532 97.101,269.529 93.934 C 261.788 85.773,252.268 78.805,241.800 73.637 C 238.157 71.839,234.086 70.000,233.749 70.000 C 233.623 70.000,232.954 69.748,232.260 69.441 C 231.567 69.133,230.010 68.568,228.800 68.186 C 227.590 67.804,226.240 67.358,225.800 67.195 C 224.098 66.567,220.498 65.600,219.859 65.600 C 219.491 65.600,218.877 65.435,218.495 65.232 C 217.852 64.892,213.512 64.111,207.200 63.198 C 203.680 62.689,194.499 62.520,188.400 62.851 M202.521 132.814 C 225.704 136.039,240.714 158.239,233.661 178.870 C 224.662 205.190,187.482 212.838,167.022 192.578 C 141.713 167.517,165.393 127.650,202.521 132.814 " stroke="none" fill="#c21a21" fill-rule="evenodd"></path><path id="path1" d="M0.000 200.000 L 0.000 400.000 200.000 400.000 L 400.000 400.000 400.000 200.000 L 400.000 0.000 200.000 0.000 L 0.000 0.000 0.000 200.000 M206.600 62.256 C 208.360 62.393,209.980 62.637,210.200 62.798 C 210.420 62.959,211.937 63.210,213.570 63.355 C 215.204 63.500,216.734 63.772,216.970 63.959 C 217.350 64.259,219.384 64.854,224.000 66.016 C 226.103 66.546,233.499 69.165,235.946 70.248 C 237.130 70.771,238.275 71.200,238.489 71.200 C 238.987 71.200,241.736 72.472,242.000 72.825 C 242.110 72.972,242.650 73.232,243.200 73.403 C 243.750 73.573,244.827 74.138,245.593 74.656 C 246.359 75.175,247.120 75.600,247.285 75.600 C 247.694 75.600,252.057 78.406,252.800 79.147 C 253.130 79.476,254.840 80.683,256.600 81.830 C 262.706 85.809,271.954 94.434,275.008 99.000 C 275.744 100.100,276.898 101.529,277.573 102.175 C 278.248 102.821,278.800 103.586,278.800 103.875 C 278.800 104.164,278.952 104.400,279.137 104.400 C 279.322 104.400,279.813 105.030,280.228 105.800 C 280.643 106.570,281.100 107.200,281.244 107.200 C 281.389 107.200,281.612 107.515,281.742 107.900 C 281.972 108.587,282.802 110.006,283.204 110.400 C 283.316 110.510,283.766 111.320,284.204 112.200 C 284.642 113.080,285.099 113.890,285.221 114.000 C 285.342 114.110,285.756 114.920,286.140 115.800 C 286.524 116.680,287.010 117.713,287.219 118.095 C 287.429 118.477,287.600 118.983,287.600 119.220 C 287.600 119.457,288.026 120.585,288.546 121.726 C 289.678 124.207,291.250 128.827,292.179 132.402 C 292.550 133.831,293.247 136.440,293.727 138.200 C 295.926 146.259,294.154 176.979,291.212 181.800 C 291.078 182.020,290.631 183.235,290.219 184.500 C 289.807 185.765,289.319 186.800,289.135 186.800 C 288.951 186.800,288.800 187.091,288.800 187.446 C 288.800 187.801,288.363 188.926,287.830 189.946 C 287.296 190.966,286.542 192.520,286.153 193.400 C 285.765 194.280,284.789 196.080,283.985 197.400 C 281.833 200.930,276.800 209.888,276.800 210.186 C 276.800 210.581,273.728 215.652,272.706 216.946 C 272.208 217.576,271.421 218.746,270.957 219.546 C 269.858 221.444,264.447 229.831,262.020 233.400 C 260.973 234.940,259.820 236.832,259.458 237.604 C 259.096 238.377,258.392 239.457,257.893 240.004 C 256.229 241.831,244.800 259.201,244.800 259.903 C 244.800 260.025,244.350 260.714,243.800 261.436 C 243.250 262.157,242.800 262.830,242.800 262.931 C 242.800 263.033,240.831 266.075,238.424 269.692 C 236.017 273.310,233.928 276.749,233.781 277.335 C 233.634 277.921,233.353 278.400,233.157 278.400 C 232.960 278.400,232.800 278.608,232.800 278.863 C 232.800 279.118,231.945 280.698,230.900 282.375 C 229.855 284.052,228.642 286.138,228.204 287.012 C 227.766 287.885,227.316 288.690,227.204 288.800 C 227.092 288.910,226.642 289.720,226.204 290.600 C 225.766 291.480,225.316 292.290,225.204 292.400 C 225.092 292.510,224.640 293.320,224.201 294.200 C 223.761 295.080,223.172 296.043,222.890 296.339 C 222.280 296.982,217.600 306.581,217.600 307.188 C 217.600 307.421,217.432 307.923,217.226 308.305 C 216.357 309.917,215.600 311.760,215.600 312.261 C 215.600 312.558,215.443 312.800,215.250 312.800 C 215.058 312.800,214.789 313.355,214.653 314.034 C 214.518 314.712,214.072 315.747,213.663 316.334 C 212.873 317.469,209.955 324.914,208.033 330.703 C 207.007 333.792,206.596 335.399,205.731 339.700 C 205.609 340.305,205.367 340.800,205.192 340.800 C 205.018 340.800,204.751 341.700,204.600 342.800 C 204.449 343.899,204.162 344.900,203.963 345.023 C 203.763 345.146,203.600 345.599,203.600 346.029 C 203.600 346.459,203.441 347.123,203.247 347.505 C 202.881 348.226,202.102 350.987,201.726 352.900 C 201.607 353.505,201.350 354.000,201.155 354.000 C 200.960 354.000,200.800 354.277,200.800 354.616 C 200.800 355.484,199.431 358.064,198.184 359.547 C 196.427 361.635,191.579 361.104,191.266 358.790 C 191.193 358.245,190.968 357.629,190.766 357.420 C 190.565 357.211,190.396 356.581,190.391 356.020 C 190.385 355.459,190.007 353.650,189.549 352.000 C 189.091 350.350,188.454 348.010,188.132 346.800 C 187.470 344.307,187.135 343.130,186.195 340.000 C 185.831 338.790,185.438 337.395,185.320 336.900 C 185.203 336.405,184.948 336.000,184.753 336.000 C 184.559 336.000,184.400 335.561,184.400 335.024 C 184.400 334.487,184.236 333.946,184.035 333.822 C 183.834 333.697,183.542 332.839,183.385 331.913 C 183.229 330.988,182.958 329.954,182.784 329.615 C 182.139 328.362,181.200 326.068,181.198 325.740 C 181.197 325.553,180.472 323.510,179.587 321.200 C 177.556 315.897,177.924 316.767,174.668 309.600 C 174.119 308.390,172.663 305.294,171.434 302.720 C 170.206 300.147,169.200 297.946,169.200 297.831 C 169.200 297.519,166.740 292.547,165.227 289.800 C 164.499 288.480,163.359 286.410,162.693 285.200 C 157.843 276.390,146.688 258.774,144.396 256.306 C 144.042 255.925,142.773 254.065,141.576 252.173 C 140.379 250.281,137.600 246.050,135.400 242.770 C 133.200 239.491,130.466 235.411,129.324 233.704 C 128.182 231.997,127.080 230.408,126.876 230.173 C 126.671 229.938,125.722 228.498,124.765 226.973 C 123.809 225.448,122.885 224.140,122.713 224.067 C 122.541 223.993,122.400 223.678,122.400 223.367 C 122.400 223.055,122.223 222.800,122.008 222.800 C 121.792 222.800,121.502 222.350,121.364 221.800 C 121.226 221.250,120.981 220.800,120.820 220.800 C 120.658 220.800,120.185 220.125,119.767 219.300 C 119.350 218.475,118.722 217.440,118.371 217.000 C 117.247 215.589,113.200 208.928,113.200 208.490 C 113.200 208.257,113.065 208.007,112.900 207.933 C 112.555 207.780,111.164 205.415,109.882 202.800 C 109.397 201.810,108.803 200.790,108.563 200.534 C 108.322 200.278,107.888 199.468,107.599 198.734 C 107.310 198.000,106.021 195.221,104.736 192.559 C 103.451 189.896,102.400 187.583,102.400 187.419 C 102.400 187.255,102.147 186.554,101.839 185.860 C 97.605 176.353,95.031 160.772,95.960 150.278 C 96.647 142.518,96.611 142.764,98.138 135.400 C 98.457 133.860,98.931 131.520,99.191 130.200 C 99.452 128.880,99.830 127.629,100.032 127.420 C 100.235 127.211,100.400 126.637,100.400 126.144 C 100.400 125.651,100.557 125.150,100.748 125.032 C 100.940 124.914,101.205 124.274,101.338 123.611 C 101.604 122.282,102.066 121.297,105.194 115.400 C 115.664 95.657,133.852 79.142,155.400 69.810 C 156.280 69.429,157.720 68.781,158.600 68.371 C 159.480 67.961,160.740 67.505,161.400 67.357 C 162.060 67.210,162.780 66.972,163.000 66.828 C 163.645 66.407,166.072 65.670,167.800 65.372 C 168.680 65.220,169.580 64.960,169.800 64.795 C 170.209 64.488,170.899 64.351,175.800 63.602 C 183.025 62.499,185.453 62.249,191.600 61.976 C 197.994 61.693,199.810 61.727,206.600 62.256 " stroke="none" fill="#e4e4e4" fill-rule="evenodd"></path><path id="path2" d="M190.900 62.276 C 191.285 62.376,191.915 62.376,192.300 62.276 C 192.685 62.175,192.370 62.093,191.600 62.093 C 190.830 62.093,190.515 62.175,190.900 62.276 M96.493 148.400 C 96.493 149.170,96.575 149.485,96.676 149.100 C 96.776 148.715,96.776 148.085,96.676 147.700 C 96.575 147.315,96.493 147.630,96.493 148.400 M294.514 150.600 C 294.517 151.700,294.595 152.103,294.687 151.495 C 294.779 150.886,294.777 149.986,294.682 149.495 C 294.587 149.003,294.511 149.500,294.514 150.600 M294.531 155.800 C 294.533 157.340,294.605 157.921,294.692 157.091 C 294.779 156.261,294.777 155.001,294.689 154.291 C 294.600 153.581,294.529 154.260,294.531 155.800 M96.109 156.000 C 96.109 156.990,96.187 157.395,96.282 156.900 C 96.378 156.405,96.378 155.595,96.282 155.100 C 96.187 154.605,96.109 155.010,96.109 156.000 " stroke="none" fill="#9a6a6a" fill-rule="evenodd"></path><path id="path3" d="M200.000 62.017 C 203.161 62.454,205.699 62.424,203.200 61.980 C 202.210 61.803,200.590 61.671,199.600 61.686 L 197.800 61.713 200.000 62.017 M187.900 62.282 C 188.395 62.378,189.205 62.378,189.700 62.282 C 190.195 62.187,189.790 62.109,188.800 62.109 C 187.810 62.109,187.405 62.187,187.900 62.282 M183.500 62.682 C 183.995 62.778,184.805 62.778,185.300 62.682 C 185.795 62.587,185.390 62.509,184.400 62.509 C 183.410 62.509,183.005 62.587,183.500 62.682 M206.033 62.544 C 206.453 62.907,210.406 63.134,210.189 62.783 C 210.059 62.572,209.033 62.400,207.910 62.400 C 206.786 62.400,205.942 62.465,206.033 62.544 M174.696 63.584 C 173.868 63.744,173.058 64.010,172.896 64.173 C 172.612 64.459,173.243 64.380,177.200 63.629 C 178.852 63.316,178.885 63.288,177.600 63.290 C 176.830 63.291,175.523 63.423,174.696 63.584 M213.200 63.543 C 214.832 64.076,217.363 64.401,216.965 64.026 C 216.764 63.837,215.610 63.577,214.400 63.449 C 213.029 63.304,212.577 63.340,213.200 63.543 M169.800 64.800 C 169.505 65.278,170.289 65.278,171.400 64.800 C 172.114 64.493,172.085 64.453,171.124 64.428 C 170.532 64.413,169.936 64.580,169.800 64.800 M166.480 65.595 C 165.754 65.767,165.034 66.039,164.880 66.200 C 164.568 66.527,166.953 66.077,168.200 65.573 C 169.212 65.165,168.243 65.177,166.480 65.595 M160.600 67.485 C 160.160 67.591,159.620 67.860,159.400 68.084 C 159.130 68.358,159.325 68.395,160.000 68.197 C 162.071 67.589,162.555 67.015,160.600 67.485 M238.433 71.351 C 238.985 71.850,242.000 73.162,242.000 72.902 C 242.000 72.730,241.279 72.276,240.397 71.894 C 238.889 71.241,238.058 71.011,238.433 71.351 M242.400 73.301 C 242.736 73.638,246.000 75.227,246.000 75.054 C 246.000 74.766,244.228 73.724,243.200 73.408 C 242.650 73.239,242.290 73.191,242.400 73.301 M246.472 75.405 C 247.079 76.012,252.400 79.122,252.400 78.870 C 252.400 78.714,251.367 77.960,250.103 77.193 C 247.886 75.848,245.972 74.906,246.472 75.405 M257.000 82.255 C 257.982 83.243,260.799 85.235,260.787 84.934 C 260.774 84.585,259.824 83.840,257.800 82.593 C 257.140 82.186,256.780 82.034,257.000 82.255 M265.086 88.964 C 267.333 91.096,270.455 94.226,272.024 95.920 C 273.593 97.614,274.685 98.619,274.452 98.153 C 273.903 97.054,264.983 88.112,262.732 86.403 C 261.780 85.680,262.839 86.832,265.086 88.964 M117.241 97.414 C 116.093 98.722,115.796 99.200,116.133 99.200 C 116.206 99.200,116.845 98.480,117.552 97.600 C 119.142 95.621,118.928 95.493,117.241 97.414 M277.235 102.271 C 277.982 103.189,278.675 103.858,278.776 103.757 C 278.877 103.656,278.267 102.904,277.419 102.087 L 275.879 100.600 277.235 102.271 M279.663 105.600 C 280.151 106.260,280.617 106.800,280.698 106.800 C 280.779 106.800,280.526 106.260,280.136 105.600 C 279.746 104.940,279.281 104.400,279.102 104.400 C 278.923 104.400,279.175 104.940,279.663 105.600 M283.656 112.017 C 284.119 112.907,284.574 113.559,284.666 113.467 C 284.901 113.233,283.466 110.422,283.106 110.410 C 282.945 110.404,283.192 111.128,283.656 112.017 M285.681 115.791 C 286.159 116.776,286.616 117.518,286.695 117.439 C 286.923 117.210,285.444 114.000,285.111 114.000 C 284.946 114.000,285.202 114.806,285.681 115.791 M102.271 120.892 C 101.282 123.258,101.071 124.127,101.557 123.826 C 101.801 123.676,102.000 123.284,102.000 122.957 C 102.000 122.629,102.283 121.812,102.629 121.143 C 102.976 120.473,103.166 119.833,103.053 119.720 C 102.940 119.606,102.588 120.134,102.271 120.892 M100.667 125.067 C 100.520 125.213,100.411 125.708,100.425 126.167 C 100.449 126.933,100.482 126.923,100.834 126.042 C 101.226 125.063,101.144 124.589,100.667 125.067 M99.887 127.473 C 99.560 128.027,99.124 130.400,99.349 130.400 C 99.613 130.400,100.435 127.502,100.229 127.296 C 100.147 127.214,99.993 127.294,99.887 127.473 M292.056 132.800 C 292.056 133.130,292.211 133.760,292.400 134.200 C 292.617 134.704,292.744 134.778,292.744 134.400 C 292.744 134.070,292.589 133.440,292.400 133.000 C 292.183 132.496,292.056 132.422,292.056 132.800 M293.433 138.400 C 293.570 139.170,293.923 141.870,294.217 144.400 L 294.752 149.000 294.554 144.768 C 294.445 142.440,294.092 139.740,293.769 138.768 C 293.278 137.286,293.223 137.227,293.433 138.400 M97.449 138.215 C 97.312 138.573,97.215 139.166,97.234 139.533 C 97.253 139.900,97.427 139.669,97.621 139.020 C 97.998 137.758,97.865 137.133,97.449 138.215 M96.673 142.153 C 96.523 142.545,96.423 143.886,96.451 145.133 L 96.501 147.400 96.844 144.800 C 97.204 142.064,97.133 140.956,96.673 142.153 M95.834 152.500 C 95.700 154.755,95.730 157.590,95.902 158.800 C 96.141 160.495,96.230 159.553,96.287 154.700 C 96.372 147.464,96.186 146.562,95.834 152.500 M294.520 160.400 C 294.520 161.610,294.595 162.105,294.687 161.500 C 294.778 160.895,294.778 159.905,294.687 159.300 C 294.595 158.695,294.520 159.190,294.520 160.400 M96.520 164.400 C 96.520 165.610,96.595 166.105,96.687 165.500 C 96.778 164.895,96.778 163.905,96.687 163.300 C 96.595 162.695,96.520 163.190,96.520 164.400 M294.093 164.400 C 294.093 165.170,294.175 165.485,294.276 165.100 C 294.376 164.715,294.376 164.085,294.276 163.700 C 294.175 163.315,294.093 163.630,294.093 164.400 M293.293 171.600 C 293.293 172.370,293.375 172.685,293.476 172.300 C 293.576 171.915,293.576 171.285,293.476 170.900 C 293.375 170.515,293.293 170.830,293.293 171.600 M292.183 177.100 C 292.044 177.925,291.847 178.960,291.746 179.400 C 291.603 180.020,291.644 180.065,291.927 179.600 C 292.336 178.930,292.915 175.600,292.623 175.600 C 292.520 175.600,292.322 176.275,292.183 177.100 M289.710 184.809 C 289.247 185.904,288.995 186.800,289.148 186.800 C 289.448 186.800,290.894 183.161,290.680 182.946 C 290.609 182.876,290.173 183.714,289.710 184.809 M288.011 188.571 C 287.785 189.167,287.413 190.002,287.186 190.427 C 286.958 190.852,286.865 191.200,286.978 191.200 C 287.321 191.200,288.872 187.938,288.639 187.706 C 288.520 187.587,288.237 187.976,288.011 188.571 M284.700 195.334 C 283.654 197.350,283.150 198.550,283.579 198.000 C 284.508 196.810,286.959 192.025,286.748 191.815 C 286.666 191.735,285.745 193.318,284.700 195.334 M107.200 197.720 C 107.200 198.266,108.566 200.800,108.861 200.800 C 109.032 200.800,108.787 200.125,108.314 199.300 C 107.300 197.528,107.200 197.387,107.200 197.720 M110.435 203.900 C 111.156 205.165,111.938 206.604,112.173 207.097 C 112.408 207.590,112.750 207.995,112.933 207.997 C 113.116 207.999,112.914 207.415,112.485 206.700 C 112.056 205.985,111.215 204.545,110.615 203.500 C 110.015 202.455,109.434 201.600,109.324 201.600 C 109.214 201.600,109.714 202.635,110.435 203.900 M113.200 208.640 C 113.200 209.085,118.134 216.813,118.734 217.309 C 119.061 217.579,118.368 216.270,117.195 214.400 C 116.022 212.530,114.715 210.415,114.291 209.700 C 113.557 208.461,113.200 208.114,113.200 208.640 M275.682 211.627 C 275.184 212.492,274.857 213.200,274.955 213.200 C 275.231 213.200,276.912 210.379,276.739 210.206 C 276.655 210.122,276.180 210.762,275.682 211.627 M274.153 214.100 C 273.990 214.375,273.599 215.005,273.283 215.500 C 272.967 215.995,272.875 216.400,273.080 216.400 C 273.284 216.400,273.752 215.770,274.119 215.000 C 274.755 213.668,274.778 213.039,274.153 214.100 M119.200 218.238 C 119.200 218.695,120.575 220.800,120.873 220.800 C 121.038 220.800,120.801 220.170,120.347 219.400 C 119.564 218.073,119.200 217.704,119.200 218.238 M121.219 221.400 C 121.209 221.994,121.923 223.010,122.174 222.759 C 122.294 222.640,122.129 222.195,121.809 221.771 C 121.488 221.347,121.222 221.180,121.219 221.400 M123.969 225.700 C 124.435 226.415,125.205 227.675,125.682 228.500 C 126.158 229.325,126.696 230.000,126.877 230.000 C 127.058 230.000,126.369 228.740,125.345 227.200 C 124.320 225.660,123.401 224.400,123.302 224.400 C 123.203 224.400,123.503 224.985,123.969 225.700 M127.549 231.000 C 127.765 231.440,128.234 232.160,128.593 232.600 L 129.244 233.400 128.851 232.600 C 128.635 232.160,128.166 231.440,127.807 231.000 L 127.156 230.200 127.549 231.000 M129.877 234.827 C 130.275 235.502,130.949 236.357,131.374 236.727 C 131.800 237.097,131.545 236.545,130.807 235.500 C 129.285 233.346,128.797 232.993,129.877 234.827 M258.460 238.427 C 256.891 240.950,256.822 241.482,258.337 239.379 C 259.381 237.929,260.156 236.400,259.847 236.400 C 259.777 236.400,259.153 237.312,258.460 238.427 M134.677 241.631 C 135.075 242.308,135.656 243.073,135.968 243.331 C 136.280 243.589,136.032 243.035,135.415 242.100 C 134.120 240.137,133.609 239.812,134.677 241.631 M139.549 249.000 C 139.765 249.440,140.234 250.160,140.593 250.600 L 141.244 251.400 140.851 250.600 C 140.635 250.160,140.166 249.440,139.807 249.000 L 139.156 248.200 139.549 249.000 M250.585 250.100 C 249.968 251.035,249.720 251.589,250.032 251.331 C 250.633 250.834,252.164 248.400,251.876 248.400 C 251.783 248.400,251.202 249.165,250.585 250.100 M141.826 252.700 C 143.187 254.783,144.800 256.919,144.800 256.638 C 144.800 256.235,141.616 251.600,141.339 251.600 C 141.212 251.600,141.431 252.095,141.826 252.700 M246.200 256.800 C 245.859 257.460,245.669 258.000,245.779 258.000 C 245.889 258.000,246.259 257.460,246.600 256.800 C 246.941 256.140,247.131 255.600,247.021 255.600 C 246.911 255.600,246.541 256.140,246.200 256.800 M244.169 260.073 C 243.998 260.363,243.599 261.005,243.283 261.500 C 242.967 261.995,242.806 262.400,242.927 262.400 C 243.291 262.400,244.903 259.969,244.684 259.750 C 244.572 259.638,244.340 259.784,244.169 260.073 M242.153 263.300 C 240.672 265.811,240.670 265.818,241.729 264.600 C 242.701 263.481,243.039 262.800,242.624 262.800 C 242.527 262.800,242.315 263.025,242.153 263.300 M238.976 268.300 C 238.150 269.565,237.300 270.825,237.088 271.100 C 236.876 271.375,236.807 271.600,236.936 271.600 C 237.134 271.600,239.609 268.111,240.554 266.500 C 241.440 264.989,240.256 266.340,238.976 268.300 M231.396 280.682 C 230.790 281.737,229.944 283.185,229.515 283.900 C 229.086 284.615,228.821 285.200,228.926 285.200 C 229.255 285.200,232.897 279.163,232.692 278.958 C 232.585 278.851,232.002 279.627,231.396 280.682 M227.620 287.161 C 227.160 288.063,226.922 288.796,227.092 288.790 C 227.482 288.778,228.900 285.966,228.645 285.712 C 228.541 285.608,228.080 286.260,227.620 287.161 M225.656 290.783 C 225.192 291.672,224.945 292.396,225.106 292.390 C 225.466 292.378,226.901 289.567,226.666 289.333 C 226.574 289.241,226.119 289.893,225.656 290.783 M223.682 294.427 C 223.184 295.292,222.916 295.996,223.088 295.990 C 223.418 295.980,224.921 293.188,224.711 292.977 C 224.643 292.909,224.180 293.562,223.682 294.427 M169.223 297.702 C 169.185 298.207,172.845 305.688,173.037 305.496 C 173.135 305.398,172.323 303.536,171.231 301.359 C 170.139 299.181,169.235 297.536,169.223 297.702 M173.219 306.122 C 173.186 306.688,174.848 310.086,175.055 309.878 C 175.165 309.768,174.801 308.806,174.246 307.739 C 173.691 306.673,173.229 305.945,173.219 306.122 M216.050 309.850 C 215.786 310.429,215.662 310.995,215.774 311.107 C 215.886 311.219,216.168 310.811,216.400 310.200 C 216.632 309.589,216.757 309.023,216.676 308.943 C 216.596 308.862,216.314 309.271,216.050 309.850 M175.212 310.522 C 175.195 310.985,176.783 314.400,177.015 314.400 C 177.228 314.400,176.295 312.039,175.634 310.904 C 175.409 310.517,175.219 310.345,175.212 310.522 M213.681 315.309 C 212.888 317.214,212.880 317.311,213.585 316.400 C 214.011 315.850,214.468 314.974,214.599 314.453 C 215.031 312.745,214.568 313.177,213.681 315.309 M178.229 317.600 C 178.376 318.150,178.664 318.870,178.867 319.200 C 179.125 319.617,179.157 319.495,178.971 318.800 C 178.824 318.250,178.536 317.530,178.333 317.200 C 178.075 316.783,178.043 316.905,178.229 317.600 M179.458 320.798 C 179.600 321.347,180.050 322.517,180.459 323.398 C 180.867 324.279,181.085 324.551,180.942 324.002 C 180.800 323.453,180.350 322.283,179.941 321.402 C 179.533 320.521,179.315 320.249,179.458 320.798 M181.233 325.474 C 181.184 326.182,181.990 328.143,182.231 327.902 C 182.346 327.787,182.176 327.087,181.853 326.347 C 181.530 325.606,181.251 325.213,181.233 325.474 M183.425 332.000 C 183.567 332.770,183.858 333.580,184.070 333.800 C 184.532 334.279,184.081 332.112,183.529 331.200 C 183.292 330.810,183.256 331.089,183.425 332.000 M206.186 335.853 C 206.047 336.484,205.678 337.797,205.367 338.771 C 204.697 340.863,204.704 340.800,205.155 340.800 C 205.350 340.800,205.609 340.305,205.730 339.700 C 205.851 339.095,206.126 337.790,206.341 336.800 C 206.555 335.810,206.665 334.934,206.585 334.853 C 206.505 334.772,206.325 335.222,206.186 335.853 M204.259 342.700 C 204.151 343.085,203.939 343.850,203.787 344.400 C 203.605 345.055,203.645 345.262,203.902 345.000 C 204.118 344.780,204.404 344.015,204.537 343.300 C 204.793 341.933,204.593 341.502,204.259 342.700 M203.246 345.867 C 203.221 346.124,203.084 346.664,202.941 347.067 C 202.740 347.636,202.794 347.697,203.179 347.342 C 203.452 347.091,203.589 346.551,203.484 346.142 C 203.379 345.734,203.272 345.610,203.246 345.867 M202.040 350.240 C 201.497 352.208,201.777 352.488,202.400 350.600 C 202.664 349.801,202.785 349.052,202.669 348.936 C 202.553 348.820,202.270 349.407,202.040 350.240 M190.400 355.910 C 190.400 356.593,190.577 357.262,190.794 357.396 C 191.040 357.548,191.094 357.145,190.937 356.320 C 190.600 354.551,190.400 354.399,190.400 355.910 M191.213 359.051 C 191.196 359.628,191.944 360.223,193.150 360.594 C 193.802 360.794,194.014 360.747,193.826 360.443 C 193.676 360.199,193.268 360.000,192.920 360.000 C 192.573 360.000,192.049 359.685,191.757 359.300 C 191.465 358.915,191.220 358.803,191.213 359.051 M197.478 359.813 C 196.860 360.356,196.514 360.800,196.708 360.800 C 196.902 360.800,197.483 360.350,198.000 359.800 C 199.195 358.528,198.931 358.534,197.478 359.813 " stroke="none" fill="#b08f8f" fill-rule="evenodd"></path><path id="path4" d="M190.000 62.354 C 188.023 62.518,189.981 62.628,195.741 62.676 C 200.548 62.716,204.408 62.675,204.319 62.586 C 204.015 62.282,193.010 62.104,190.000 62.354 M181.000 63.200 L 179.400 63.486 181.000 63.537 C 181.880 63.565,182.870 63.413,183.200 63.200 C 183.915 62.738,183.581 62.738,181.000 63.200 M207.200 63.154 C 207.750 63.328,209.370 63.576,210.800 63.703 C 212.230 63.831,212.950 63.798,212.400 63.630 C 211.850 63.462,210.230 63.215,208.800 63.081 C 207.332 62.943,206.635 62.975,207.200 63.154 M173.600 64.400 L 172.600 64.720 173.600 64.720 C 174.150 64.720,175.050 64.576,175.600 64.400 L 176.600 64.080 175.600 64.080 C 175.050 64.080,174.150 64.224,173.600 64.400 M214.800 64.400 C 215.350 64.576,216.160 64.726,216.600 64.732 L 217.400 64.744 216.600 64.400 C 216.160 64.211,215.350 64.062,214.800 64.068 L 213.800 64.080 214.800 64.400 M169.400 65.407 L 167.800 65.952 169.400 65.725 C 171.088 65.485,172.781 64.806,171.600 64.843 C 171.270 64.853,170.280 65.107,169.400 65.407 M165.800 66.400 C 165.296 66.617,165.222 66.744,165.600 66.744 C 165.930 66.744,166.560 66.589,167.000 66.400 C 167.504 66.183,167.578 66.056,167.200 66.056 C 166.870 66.056,166.240 66.211,165.800 66.400 M223.000 66.400 C 223.440 66.589,224.070 66.744,224.400 66.744 C 224.778 66.744,224.704 66.617,224.200 66.400 C 223.760 66.211,223.130 66.056,222.800 66.056 C 222.422 66.056,222.496 66.183,223.000 66.400 M162.600 67.402 L 161.400 67.967 162.600 67.732 C 163.260 67.603,163.971 67.340,164.180 67.148 C 164.750 66.626,163.987 66.748,162.600 67.402 M225.800 67.200 C 225.936 67.420,226.442 67.587,226.924 67.572 C 227.769 67.545,227.771 67.531,227.000 67.200 C 225.899 66.727,225.508 66.727,225.800 67.200 M159.600 68.400 C 159.067 68.745,159.067 68.788,159.600 68.788 C 159.930 68.788,160.470 68.613,160.800 68.400 C 161.333 68.055,161.333 68.012,160.800 68.012 C 160.470 68.012,159.930 68.187,159.600 68.400 M231.600 69.031 C 231.600 69.301,233.678 70.056,233.876 69.857 C 233.967 69.767,233.492 69.501,232.820 69.267 C 232.149 69.033,231.600 68.927,231.600 69.031 M151.800 71.774 C 150.700 72.303,149.912 72.751,150.049 72.768 C 150.416 72.815,154.000 71.194,154.000 70.981 C 154.000 70.716,153.980 70.724,151.800 71.774 M236.400 71.031 C 236.400 71.301,238.478 72.056,238.676 71.857 C 238.767 71.767,238.292 71.501,237.620 71.267 C 236.949 71.033,236.400 70.927,236.400 71.031 M147.900 73.627 C 147.075 74.063,146.400 74.508,146.400 74.618 C 146.400 74.727,147.120 74.449,148.000 74.000 C 148.880 73.551,149.600 73.097,149.600 72.992 C 149.600 72.730,149.597 72.731,147.900 73.627 M240.970 73.152 C 241.090 73.345,241.595 73.606,242.094 73.732 C 242.968 73.952,242.973 73.940,242.224 73.380 C 241.364 72.738,240.632 72.604,240.970 73.152 M244.800 74.952 C 244.800 75.253,247.695 76.838,247.889 76.644 C 247.993 76.541,247.340 76.080,246.439 75.620 C 245.537 75.160,244.800 74.860,244.800 74.952 M249.000 77.407 C 249.440 77.766,250.160 78.235,250.600 78.451 L 251.400 78.844 250.600 78.193 C 250.160 77.834,249.440 77.365,249.000 77.149 L 248.200 76.756 249.000 77.407 M257.200 82.911 C 257.200 82.987,257.785 83.478,258.500 84.001 C 259.304 84.590,259.584 84.687,259.233 84.255 C 258.700 83.599,257.200 82.607,257.200 82.911 M260.003 85.066 C 260.004 85.250,260.589 85.804,261.303 86.299 C 262.987 87.466,269.571 93.823,272.797 97.400 C 274.245 99.004,274.747 99.431,273.972 98.400 C 271.298 94.839,259.994 84.050,260.003 85.066 M126.975 88.500 L 125.800 89.800 127.198 88.600 C 127.967 87.940,128.672 87.355,128.765 87.300 C 128.857 87.245,128.757 87.200,128.542 87.200 C 128.326 87.200,127.621 87.785,126.975 88.500 M122.400 92.600 C 121.428 93.590,120.723 94.400,120.833 94.400 C 120.943 94.400,121.828 93.590,122.800 92.600 C 123.772 91.610,124.477 90.800,124.367 90.800 C 124.257 90.800,123.372 91.610,122.400 92.600 M119.200 95.995 C 117.122 98.167,116.715 98.924,118.598 97.114 C 119.678 96.077,120.480 95.166,120.381 95.089 C 120.281 95.013,119.750 95.421,119.200 95.995 M276.329 101.910 C 277.060 102.833,277.870 103.720,278.129 103.879 C 278.388 104.039,278.002 103.414,277.271 102.490 C 276.540 101.567,275.730 100.680,275.471 100.521 C 275.212 100.361,275.598 100.986,276.329 101.910 M112.888 103.700 C 110.567 106.870,108.740 109.600,108.940 109.600 C 109.038 109.600,110.389 107.800,111.942 105.600 C 114.872 101.447,115.584 100.017,112.888 103.700 M107.829 111.143 C 106.925 112.893,107.056 113.241,108.023 111.655 C 108.474 110.915,108.757 110.223,108.651 110.118 C 108.545 110.012,108.176 110.473,107.829 111.143 M282.349 110.600 C 282.565 111.040,283.034 111.760,283.393 112.200 L 284.044 113.000 283.651 112.200 C 283.435 111.760,282.966 111.040,282.607 110.600 L 281.956 109.800 282.349 110.600 M105.600 115.200 C 105.151 116.080,104.874 116.800,104.984 116.800 C 105.094 116.800,105.551 116.080,106.000 115.200 C 106.449 114.320,106.726 113.600,106.616 113.600 C 106.506 113.600,106.049 114.320,105.600 115.200 M103.657 119.057 C 103.166 120.069,102.847 120.980,102.948 121.082 C 103.050 121.183,103.510 120.414,103.971 119.371 C 105.060 116.911,104.818 116.669,103.657 119.057 M287.214 120.220 C 287.222 120.429,287.499 121.050,287.831 121.600 L 288.433 122.600 288.172 121.600 C 287.899 120.557,287.189 119.533,287.214 120.220 M101.650 123.850 C 101.173 125.096,100.872 126.206,100.982 126.315 C 101.092 126.425,101.291 126.174,101.424 125.757 C 101.558 125.341,101.951 124.323,102.297 123.496 C 102.642 122.669,102.833 121.900,102.721 121.788 C 102.609 121.676,102.127 122.604,101.650 123.850 M289.429 125.600 C 289.576 126.150,289.864 126.870,290.067 127.200 C 290.325 127.617,290.357 127.495,290.171 126.800 C 290.024 126.250,289.736 125.530,289.533 125.200 C 289.275 124.783,289.243 124.905,289.429 125.600 M100.000 128.800 C 99.411 130.989,99.723 131.301,100.364 129.164 C 100.634 128.261,100.765 127.431,100.654 127.321 C 100.543 127.210,100.249 127.876,100.000 128.800 M291.256 131.200 C 291.256 131.530,291.411 132.160,291.600 132.600 C 291.817 133.104,291.944 133.178,291.944 132.800 C 291.944 132.470,291.789 131.840,291.600 131.400 C 291.383 130.896,291.256 130.822,291.256 131.200 M99.246 131.667 C 99.221 132.034,99.096 132.664,98.970 133.067 C 98.752 133.762,98.763 133.763,99.197 133.087 C 99.448 132.696,99.573 132.066,99.473 131.687 C 99.311 131.068,99.288 131.066,99.246 131.667 M189.029 132.843 C 166.403 136.142,151.442 158.366,158.234 178.587 C 169.546 212.269,222.175 212.466,233.661 178.870 C 242.412 153.273,218.442 128.555,189.029 132.843 M98.256 136.084 C 98.121 136.588,98.027 137.360,98.046 137.800 C 98.065 138.240,98.245 137.898,98.446 137.040 C 98.836 135.378,98.670 134.540,98.256 136.084 M292.446 136.000 C 292.427 136.550,292.587 137.270,292.800 137.600 C 293.294 138.364,293.294 137.542,292.800 136.000 L 292.480 135.000 292.446 136.000 M293.270 140.000 C 293.264 140.550,293.403 141.810,293.580 142.800 L 293.900 144.600 293.910 142.800 C 293.916 141.810,293.776 140.550,293.600 140.000 L 293.280 139.000 293.270 140.000 M97.272 142.050 C 97.232 142.847,97.105 144.108,96.989 144.850 C 96.797 146.085,96.815 146.116,97.208 145.215 C 97.444 144.674,97.571 143.414,97.491 142.415 C 97.362 140.818,97.336 140.775,97.272 142.050 M294.134 148.400 C 294.134 150.050,294.205 150.725,294.291 149.900 C 294.378 149.075,294.378 147.725,294.291 146.900 C 294.205 146.075,294.134 146.750,294.134 148.400 M96.559 155.200 C 96.559 158.390,96.621 159.695,96.697 158.100 C 96.773 156.505,96.773 153.895,96.697 152.300 C 96.621 150.705,96.559 152.010,96.559 155.200 M294.120 159.600 C 294.120 160.810,294.195 161.305,294.287 160.700 C 294.378 160.095,294.378 159.105,294.287 158.500 C 294.195 157.895,294.120 158.390,294.120 159.600 M293.458 166.759 C 293.307 168.386,293.261 169.795,293.357 169.890 C 293.606 170.139,294.121 164.963,293.910 164.330 C 293.813 164.039,293.610 165.132,293.458 166.759 M97.068 167.200 C 97.200 168.410,97.374 169.475,97.454 169.567 C 97.764 169.921,97.525 166.557,97.186 165.800 C 96.952 165.278,96.912 165.763,97.068 167.200 M98.028 172.833 C 98.044 173.365,98.219 174.160,98.419 174.600 C 98.671 175.158,98.707 174.915,98.538 173.800 C 98.255 171.943,97.987 171.436,98.028 172.833 M292.649 172.615 C 292.512 172.973,292.418 173.746,292.440 174.333 C 292.473 175.191,292.552 175.095,292.846 173.840 C 293.222 172.239,293.095 171.453,292.649 172.615 M98.828 176.676 C 98.918 177.715,99.544 178.596,99.572 177.724 C 99.587 177.242,99.420 176.736,99.200 176.600 C 98.980 176.464,98.813 176.498,98.828 176.676 M291.646 177.667 C 291.621 178.034,291.496 178.664,291.370 179.067 C 291.152 179.762,291.163 179.763,291.597 179.087 C 291.848 178.696,291.973 178.066,291.873 177.687 C 291.711 177.068,291.688 177.066,291.646 177.667 M290.695 180.673 C 290.594 180.853,290.403 181.540,290.272 182.200 C 290.034 183.394,290.036 183.393,290.637 182.053 C 291.160 180.886,291.208 179.768,290.695 180.673 M101.818 185.300 C 101.968 185.795,102.255 186.376,102.456 186.591 C 102.657 186.806,102.619 186.401,102.372 185.691 C 101.865 184.238,101.397 183.908,101.818 185.300 M288.014 187.462 C 287.561 188.486,287.277 189.411,287.384 189.517 C 287.490 189.624,287.780 189.191,288.027 188.555 C 288.274 187.920,288.634 186.995,288.828 186.500 C 289.481 184.832,288.845 185.583,288.014 187.462 M284.526 194.700 C 284.389 195.085,284.201 195.580,284.109 195.800 C 284.016 196.020,284.224 195.851,284.570 195.424 C 285.199 194.648,285.389 194.000,284.987 194.000 C 284.871 194.000,284.663 194.315,284.526 194.700 M113.663 208.617 C 114.123 209.396,114.572 209.961,114.662 209.871 C 114.886 209.647,113.469 207.206,113.113 207.203 C 112.956 207.201,113.203 207.838,113.663 208.617 M275.552 210.900 C 275.290 211.395,274.815 212.250,274.496 212.800 C 273.939 213.759,273.943 213.767,274.588 213.000 C 275.386 212.052,276.505 210.000,276.224 210.000 C 276.116 210.000,275.814 210.405,275.552 210.900 M115.150 211.000 C 115.730 212.184,116.773 213.460,116.785 213.000 C 116.791 212.780,116.337 212.060,115.777 211.400 C 115.216 210.740,114.934 210.560,115.150 211.000 M117.354 214.600 C 117.709 215.150,118.294 216.056,118.654 216.612 C 119.014 217.169,119.391 217.542,119.493 217.441 C 119.702 217.231,117.283 213.600,116.935 213.600 C 116.810 213.600,116.999 214.050,117.354 214.600 M272.380 216.094 C 271.672 217.245,271.347 217.976,271.660 217.717 C 272.275 217.206,274.173 214.000,273.860 214.000 C 273.755 214.000,273.089 214.942,272.380 216.094 M121.157 220.700 C 121.850 221.961,122.774 223.009,122.787 222.549 C 122.794 222.301,122.530 221.874,122.200 221.600 C 121.870 221.326,121.600 220.854,121.600 220.551 C 121.600 220.248,121.414 220.000,121.186 220.000 C 120.912 220.000,120.902 220.236,121.157 220.700 M124.655 226.000 C 125.680 227.540,126.599 228.800,126.698 228.800 C 126.797 228.800,126.494 228.215,126.024 227.500 C 125.554 226.785,124.771 225.526,124.284 224.703 C 123.798 223.880,123.264 223.205,123.097 223.203 C 122.930 223.201,123.631 224.460,124.655 226.000 M265.853 226.500 L 265.133 227.800 265.958 226.800 C 266.689 225.913,267.014 225.200,266.686 225.200 C 266.624 225.200,266.249 225.785,265.853 226.500 M264.553 228.500 C 263.176 230.836,263.086 231.035,263.787 230.200 C 264.600 229.232,265.300 228.000,265.038 228.000 C 264.933 228.000,264.715 228.225,264.553 228.500 M128.655 232.000 C 129.680 233.540,130.599 234.800,130.698 234.800 C 130.797 234.800,130.494 234.215,130.024 233.500 C 129.554 232.785,128.771 231.526,128.284 230.703 C 127.798 229.880,127.264 229.205,127.097 229.203 C 126.930 229.201,127.631 230.460,128.655 232.000 M260.553 234.500 C 259.176 236.836,259.086 237.035,259.787 236.200 C 260.600 235.232,261.300 234.000,261.038 234.000 C 260.933 234.000,260.715 234.225,260.553 234.500 M131.600 236.400 C 132.070 237.060,132.544 237.600,132.654 237.600 C 132.764 237.600,132.470 237.060,132.000 236.400 C 131.530 235.740,131.056 235.200,130.946 235.200 C 130.836 235.200,131.130 235.740,131.600 236.400 M257.324 239.500 C 255.568 242.036,254.849 243.240,255.472 242.600 C 256.409 241.637,259.375 237.200,259.082 237.200 C 258.990 237.200,258.199 238.235,257.324 239.500 M133.149 238.600 C 133.365 239.040,133.834 239.760,134.193 240.200 L 134.844 241.000 134.451 240.200 C 134.235 239.760,133.766 239.040,133.407 238.600 L 132.756 237.800 133.149 238.600 M137.149 244.600 C 137.365 245.040,137.834 245.760,138.193 246.200 L 138.844 247.000 138.451 246.200 C 138.235 245.760,137.766 245.040,137.407 244.600 L 136.756 243.800 137.149 244.600 M252.553 246.500 C 251.176 248.836,251.086 249.035,251.787 248.200 C 252.600 247.232,253.300 246.000,253.038 246.000 C 252.933 246.000,252.715 246.225,252.553 246.500 M140.655 250.000 C 141.680 251.540,142.592 252.800,142.682 252.800 C 142.895 252.800,142.598 252.301,140.715 249.500 C 139.866 248.235,139.085 247.200,138.982 247.200 C 138.878 247.200,139.631 248.460,140.655 250.000 M248.553 252.500 C 247.176 254.836,247.086 255.035,247.787 254.200 C 248.600 253.232,249.300 252.000,249.038 252.000 C 248.933 252.000,248.715 252.225,248.553 252.500 M144.659 256.005 C 145.684 257.547,146.595 258.739,146.681 258.652 C 146.851 258.482,143.252 253.200,142.966 253.200 C 142.871 253.200,143.633 254.462,144.659 256.005 M244.377 258.900 C 243.667 260.055,242.821 261.405,242.497 261.900 C 242.173 262.395,241.993 262.800,242.097 262.800 C 242.305 262.800,244.784 259.138,245.549 257.700 C 246.457 255.994,245.666 256.805,244.377 258.900 M241.353 263.700 C 239.976 266.036,239.886 266.235,240.587 265.400 C 241.400 264.432,242.100 263.200,241.838 263.200 C 241.733 263.200,241.515 263.425,241.353 263.700 M238.553 268.100 C 237.176 270.436,237.086 270.635,237.787 269.800 C 238.600 268.832,239.300 267.600,239.038 267.600 C 238.933 267.600,238.715 267.825,238.553 268.100 M234.553 274.500 C 233.176 276.836,233.086 277.035,233.787 276.200 C 234.600 275.232,235.300 274.000,235.038 274.000 C 234.933 274.000,234.715 274.225,234.553 274.500 M232.020 278.761 C 231.560 279.663,231.260 280.400,231.352 280.400 C 231.653 280.400,233.238 277.505,233.044 277.311 C 232.941 277.207,232.480 277.860,232.020 278.761 M229.479 283.100 C 227.765 285.960,227.120 287.200,227.348 287.200 C 227.444 287.200,228.107 286.165,228.820 284.900 C 229.533 283.635,230.381 282.195,230.704 281.700 C 231.027 281.205,231.194 280.800,231.075 280.800 C 230.956 280.800,230.238 281.835,229.479 283.100 M225.877 289.500 C 224.212 292.433,223.168 294.501,223.290 294.624 C 223.375 294.708,224.122 293.522,224.950 291.989 C 226.077 289.902,226.895 287.707,225.877 289.500 M220.000 300.400 C 219.551 301.280,219.274 302.000,219.384 302.000 C 219.494 302.000,219.951 301.280,220.400 300.400 C 220.849 299.520,221.126 298.800,221.016 298.800 C 220.906 298.800,220.449 299.520,220.000 300.400 M217.980 304.439 C 217.520 305.340,217.242 306.175,217.361 306.294 C 217.480 306.413,217.763 306.024,217.989 305.429 C 218.215 304.833,218.587 303.998,218.814 303.573 C 219.042 303.148,219.135 302.800,219.022 302.800 C 218.909 302.800,218.440 303.537,217.980 304.439 M173.186 305.173 C 173.413 305.598,173.785 306.433,174.011 307.029 C 174.237 307.624,174.520 308.013,174.639 307.894 C 174.872 307.662,173.321 304.400,172.978 304.400 C 172.865 304.400,172.958 304.748,173.186 305.173 M174.814 308.620 C 174.822 308.829,175.099 309.450,175.431 310.000 L 176.033 311.000 175.772 310.000 C 175.499 308.957,174.789 307.933,174.814 308.620 M179.267 319.220 C 179.501 319.892,179.767 320.367,179.857 320.276 C 180.056 320.078,179.301 318.000,179.031 318.000 C 178.927 318.000,179.033 318.549,179.267 319.220 M181.267 324.420 C 181.501 325.092,181.767 325.567,181.857 325.476 C 182.056 325.278,181.301 323.200,181.031 323.200 C 180.927 323.200,181.033 323.749,181.267 324.420 M182.012 326.400 C 182.012 326.730,182.187 327.270,182.400 327.600 C 182.745 328.133,182.788 328.133,182.788 327.600 C 182.788 327.270,182.613 326.730,182.400 326.400 C 182.055 325.867,182.012 325.867,182.012 326.400 M183.003 329.200 C 183.477 330.815,184.049 331.577,183.754 330.200 C 183.612 329.540,183.320 328.820,183.103 328.600 C 182.845 328.337,182.811 328.543,183.003 329.200 M184.056 332.000 C 184.056 332.330,184.211 332.960,184.400 333.400 C 184.617 333.904,184.744 333.978,184.744 333.600 C 184.744 333.270,184.589 332.640,184.400 332.200 C 184.183 331.696,184.056 331.622,184.056 332.000 M206.667 332.667 C 206.520 332.813,206.411 333.308,206.425 333.767 C 206.449 334.533,206.482 334.523,206.834 333.642 C 207.226 332.663,207.144 332.189,206.667 332.667 M205.429 337.029 C 205.281 337.615,205.251 338.184,205.361 338.294 C 205.471 338.404,205.681 338.015,205.829 337.429 C 205.976 336.842,206.006 336.273,205.896 336.163 C 205.786 336.053,205.576 336.442,205.429 337.029 M186.006 338.233 C 186.009 338.655,186.195 339.270,186.418 339.600 C 186.715 340.038,186.752 339.876,186.556 339.000 C 186.227 337.529,185.998 337.210,186.006 338.233 M204.667 339.467 C 204.520 339.613,204.411 340.108,204.425 340.567 C 204.449 341.333,204.482 341.323,204.834 340.442 C 205.226 339.463,205.144 338.989,204.667 339.467 M203.429 343.829 C 203.281 344.415,203.238 344.972,203.332 345.066 C 203.427 345.160,203.624 344.758,203.771 344.171 C 203.919 343.585,203.962 343.028,203.868 342.934 C 203.773 342.840,203.576 343.242,203.429 343.829 M188.056 345.200 C 188.056 345.530,188.211 346.160,188.400 346.600 C 188.617 347.104,188.744 347.178,188.744 346.800 C 188.744 346.470,188.589 345.840,188.400 345.400 C 188.183 344.896,188.056 344.822,188.056 345.200 M202.667 346.267 C 202.520 346.413,202.411 346.908,202.425 347.367 C 202.449 348.133,202.482 348.123,202.834 347.242 C 203.226 346.263,203.144 345.789,202.667 346.267 M201.429 350.629 C 201.281 351.215,201.238 351.772,201.332 351.866 C 201.427 351.960,201.624 351.558,201.771 350.971 C 201.919 350.385,201.962 349.828,201.868 349.734 C 201.773 349.640,201.576 350.042,201.429 350.629 M190.034 352.600 C 190.022 353.040,190.187 353.670,190.400 354.000 C 190.914 354.795,190.914 353.796,190.400 352.600 L 190.056 351.800 190.034 352.600 M200.444 353.644 C 200.198 354.351,200.066 355.000,200.152 355.085 C 200.238 355.171,200.509 354.662,200.756 353.956 C 201.002 353.249,201.134 352.600,201.048 352.515 C 200.962 352.429,200.691 352.938,200.444 353.644 M191.059 356.880 C 191.402 358.712,191.875 359.108,191.675 357.396 C 191.585 356.624,191.354 355.895,191.162 355.776 C 190.969 355.658,190.923 356.154,191.059 356.880 M194.262 360.500 C 194.364 360.665,194.876 360.800,195.400 360.800 C 195.924 360.800,196.436 360.665,196.538 360.500 C 196.640 360.335,196.128 360.200,195.400 360.200 C 194.672 360.200,194.160 360.335,194.262 360.500 " stroke="none" fill="#945c5c" fill-rule="evenodd"></path></g></svg>